<?xml version="1.0" encoding="UTF-8" standalone="no"?>
<!DOCTYPE svg PUBLIC "-//W3C//DTD SVG 1.1//EN"
 "http://www.w3.org/Graphics/SVG/1.1/DTD/svg11.dtd">
<!-- Generated by graphviz version 2.43.0 (0)
 -->
<!-- Title: AVL Pages: 1 -->
<svg width="204pt" height="161pt"
 viewBox="0.00 0.00 204.00 161.00" xmlns="http://www.w3.org/2000/svg" xmlns:xlink="http://www.w3.org/1999/xlink">
<g id="graph0" class="graph" transform="scale(1 1) rotate(0) translate(4 157)">
<title>AVL</title>
<polygon fill="white" stroke="transparent" points="-4,4 -4,-157 200,-157 200,4 -4,4"/>
<text text-anchor="middle" x="98" y="-7.8" font-family="Times,serif" font-size="14.00">Arbol AVL de Productos</text>
<!-- node_134764029014960 -->
<g id="node1" class="node">
<title>node_134764029014960</title>
<polygon fill="lightblue" stroke="black" points="58.5,-106.5 58.5,-152.5 135.5,-152.5 135.5,-106.5 58.5,-106.5"/>
<text text-anchor="middle" x="97" y="-137.3" font-family="Times,serif" font-size="14.00">Pan Molde</text>
<polyline fill="none" stroke="black" points="58.5,-129.5 135.5,-129.5 "/>
<text text-anchor="middle" x="97" y="-114.3" font-family="Times,serif" font-size="14.00">FE: 0</text>
</g>
<!-- node_134764028490624 -->
<g id="node2" class="node">
<title>node_134764028490624</title>
<polygon fill="lightblue" stroke="black" points="0,-23.5 0,-69.5 88,-69.5 88,-23.5 0,-23.5"/>
<text text-anchor="middle" x="44" y="-54.3" font-family="Times,serif" font-size="14.00">Atun en Lata</text>
<polyline fill="none" stroke="black" points="0,-46.5 88,-46.5 "/>
<text text-anchor="middle" x="44" y="-31.3" font-family="Times,serif" font-size="14.00">FE: 0</text>
</g>
<!-- node_134764029014960&#45;&gt;node_134764028490624 -->
<g id="edge1" class="edge">
<title>node_134764029014960&#45;&gt;node_134764028490624</title>
<path fill="none" stroke="black" d="M82.52,-106.37C76.79,-97.62 70.12,-87.41 63.95,-77.99"/>
<polygon fill="black" stroke="black" points="66.87,-76.06 58.46,-69.61 61.01,-79.89 66.87,-76.06"/>
</g>
<!-- node_134764028491200 -->
<g id="node3" class="node">
<title>node_134764028491200</title>
<polygon fill="lightblue" stroke="black" points="106,-23.5 106,-69.5 196,-69.5 196,-23.5 106,-23.5"/>
<text text-anchor="middle" x="151" y="-54.3" font-family="Times,serif" font-size="14.00">Salsa Tomate</text>
<polyline fill="none" stroke="black" points="106,-46.5 196,-46.5 "/>
<text text-anchor="middle" x="151" y="-31.3" font-family="Times,serif" font-size="14.00">FE: 0</text>
</g>
<!-- node_134764029014960&#45;&gt;node_134764028491200 -->
<g id="edge2" class="edge">
<title>node_134764029014960&#45;&gt;node_134764028491200</title>
<path fill="none" stroke="black" d="M111.76,-106.37C117.59,-97.62 124.39,-87.41 130.68,-77.99"/>
<polygon fill="black" stroke="black" points="133.63,-79.87 136.26,-69.61 127.8,-75.99 133.63,-79.87"/>
</g>
</g>
</svg>
