<?xml version="1.0" encoding="UTF-8" standalone="no"?>
<!DOCTYPE svg PUBLIC "-//W3C//DTD SVG 1.1//EN"
 "http://www.w3.org/Graphics/SVG/1.1/DTD/svg11.dtd">
<!-- Generated by graphviz version 2.43.0 (0)
 -->
<!-- Title: Sucursales Pages: 1 -->
<svg width="199pt" height="159pt"
 viewBox="0.00 0.00 198.75 158.59" xmlns="http://www.w3.org/2000/svg" xmlns:xlink="http://www.w3.org/1999/xlink">
<g id="graph0" class="graph" transform="scale(1 1) rotate(0) translate(4 154.59)">
<title>Sucursales</title>
<polygon fill="white" stroke="transparent" points="-4,4 -4,-154.59 194.75,-154.59 194.75,4 -4,4"/>
<!-- S001 -->
<g id="node1" class="node">
<title>S001</title>
<ellipse fill="orange" stroke="black" cx="99.65" cy="-29.24" rx="25.48" ry="25.48"/>
<text text-anchor="middle" x="99.65" y="-26.14" font-family="Times,serif" font-size="12.00">S001</text>
</g>
<!-- S002 -->
<g id="node2" class="node">
<title>S002</title>
<ellipse fill="lightblue" stroke="black" cx="159.9" cy="-65.27" rx="25.48" ry="25.48"/>
<text text-anchor="middle" x="159.9" y="-62.17" font-family="Times,serif" font-size="12.00">S002</text>
</g>
<!-- S001&#45;&#45;S002 -->
<g id="edge1" class="edge">
<title>S001&#45;&#45;S002</title>
<path fill="none" stroke="black" d="M121.4,-42.25C126.79,-45.47 132.57,-48.93 137.97,-52.16"/>
<text text-anchor="middle" x="154.18" y="-36" font-family="Times,serif" font-size="14.00">⏱45.0</text>
<text text-anchor="middle" x="154.18" y="-21" font-family="Times,serif" font-size="14.00">💰120.0</text>
</g>
<!-- S003 -->
<g id="node3" class="node">
<title>S003</title>
<ellipse fill="lightblue" stroke="black" cx="34.86" cy="-30.76" rx="25.48" ry="25.48"/>
<text text-anchor="middle" x="34.86" y="-27.66" font-family="Times,serif" font-size="12.00">S003</text>
</g>
<!-- S001&#45;&#45;S003 -->
<g id="edge2" class="edge">
<title>S001&#45;&#45;S003</title>
<path fill="none" stroke="black" d="M74.41,-29.83C69.72,-29.94 64.82,-30.06 60.13,-30.17"/>
<text text-anchor="middle" x="56.77" y="-18.8" font-family="Times,serif" font-size="14.00">⏱30.0</text>
<text text-anchor="middle" x="56.77" y="-3.8" font-family="Times,serif" font-size="14.00">💰80.0</text>
</g>
<!-- S004 -->
<g id="node4" class="node">
<title>S004</title>
<ellipse fill="orange" stroke="black" cx="63.16" cy="-89.25" rx="25.48" ry="25.48"/>
<text text-anchor="middle" x="63.16" y="-86.15" font-family="Times,serif" font-size="12.00">S004</text>
</g>
<!-- S001&#45;&#45;S004 -->
<g id="edge3" class="edge">
<title>S001&#45;&#45;S004</title>
<path fill="none" stroke="red" stroke-width="2.5" d="M86.47,-50.9C83.21,-56.27 79.71,-62.03 76.44,-67.41"/>
<text text-anchor="middle" x="105.96" y="-77.95" font-family="Times,serif" font-size="14.00">⏱60.0</text>
<text text-anchor="middle" x="105.96" y="-62.95" font-family="Times,serif" font-size="14.00">💰150.0</text>
</g>
<!-- S005 -->
<g id="node5" class="node">
<title>S005</title>
<ellipse fill="lightblue" stroke="black" cx="123.49" cy="-125.35" rx="25.48" ry="25.48"/>
<text text-anchor="middle" x="123.49" y="-122.25" font-family="Times,serif" font-size="12.00">S005</text>
</g>
<!-- S002&#45;&#45;S005 -->
<g id="edge4" class="edge">
<title>S002&#45;&#45;S005</title>
<path fill="none" stroke="black" d="M146.75,-86.96C143.5,-92.34 140,-98.11 136.74,-103.49"/>
<text text-anchor="middle" x="166.25" y="-114.02" font-family="Times,serif" font-size="14.00">⏱50.0</text>
<text text-anchor="middle" x="166.25" y="-99.02" font-family="Times,serif" font-size="14.00">💰130.0</text>
</g>
<!-- S003&#45;&#45;S004 -->
<g id="edge5" class="edge">
<title>S003&#45;&#45;S004</title>
<path fill="none" stroke="black" d="M45.88,-53.54C47.93,-57.77 50.07,-62.2 52.12,-66.43"/>
<text text-anchor="middle" x="24.5" y="-78.79" font-family="Times,serif" font-size="14.00">⏱40.0</text>
<text text-anchor="middle" x="24.5" y="-63.79" font-family="Times,serif" font-size="14.00">💰100.0</text>
</g>
<!-- S004&#45;&#45;S005 -->
<g id="edge6" class="edge">
<title>S004&#45;&#45;S005</title>
<path fill="none" stroke="black" d="M84.94,-102.28C90.34,-105.51 96.13,-108.98 101.54,-112.21"/>
<text text-anchor="middle" x="72.24" y="-126.05" font-family="Times,serif" font-size="14.00">⏱35.0</text>
<text text-anchor="middle" x="72.24" y="-111.05" font-family="Times,serif" font-size="14.00">💰90.0</text>
</g>
</g>
</svg>
